<?xml version="1.0" standalone="no"?><!DOCTYPE svg PUBLIC "-//W3C//DTD SVG 1.1//EN" "http://www.w3.org/Graphics/SVG/1.1/DTD/svg11.dtd"><svg t="1746520085589" class="icon" viewBox="0 0 1024 1024" version="1.1" xmlns="http://www.w3.org/2000/svg" p-id="5968" xmlns:xlink="http://www.w3.org/1999/xlink" width="200" height="200"><path d="M747.776 928.64l121.344-322.368h-207.808L954.88 202.24l-132.48 319.552H1024l-276.224 406.784zM524.288 246.656h-71.04V38.528a38.528 38.528 0 0 0-77.056 0v208.128h-168.32V38.528a38.528 38.528 0 0 0-77.056 0v208.128H59.776A59.84 59.84 0 0 0 0 306.432v87.04c0 33.024 26.816 59.84 59.776 59.84h11.968v170.368l98.624 106.56 35.84 114.304h35.456V1024h100.672v-179.456h35.52l35.84-114.304 98.624-106.56V453.312h11.968a59.84 59.84 0 0 0 59.776-59.776V306.432a59.84 59.84 0 0 0-59.776-59.776zM332.8 783.104H251.328l-11.904-37.888h105.152l-11.84 37.888z m118.144-183.552l-77.888 84.16h-161.92L133.12 599.552V453.312h317.696v146.24z m71.68-207.744H61.44V308.096h461.184v83.712z" fill="#1296db" p-id="5969"></path></svg>