<?xml version="1.0" standalone="no"?><!DOCTYPE svg PUBLIC "-//W3C//DTD SVG 1.1//EN" "http://www.w3.org/Graphics/SVG/1.1/DTD/svg11.dtd"><svg t="1746520055019" class="icon" viewBox="0 0 1024 1024" version="1.1" xmlns="http://www.w3.org/2000/svg" p-id="4898" xmlns:xlink="http://www.w3.org/1999/xlink" width="200" height="200"><path d="M511.761067 4.676267C230.912 4.676267 3.242667 232.3456 3.242667 513.2288c0 280.849067 227.669333 508.5184 508.5184 508.5184 280.8832 0 508.552533-227.669333 508.552533-508.5184 0-280.8832-227.669333-508.586667-508.552533-508.586667z m208.384 417.109333l-169.745067 398.0288-1.058133 1.911467a44.475733 44.475733 0 0 1-77.277867-0.1024l-1.058133-1.911467-168.379734-397.994667a37.034667 37.034667 0 0 1 68.1984-28.8768l139.9808 331.093334 141.243734-331.195734a37.034667 37.034667 0 0 1 68.096 29.047467z m120.490666-33.109333a32.938667 32.938667 0 0 1-57.617066 3.515733 326.519467 326.519467 0 0 0-542.890667 2.218667 32.9728 32.9728 0 0 1-54.954667-36.522667c119.808-180.599467 363.3152-229.956267 543.9488-110.1824a392.3968 392.3968 0 0 1 108.475734 107.6224c6.997333 9.762133 8.157867 22.528 3.003733 33.348267z" fill="#1296db" p-id="4899"></path></svg>