<?xml version="1.0" standalone="no"?><!DOCTYPE svg PUBLIC "-//W3C//DTD SVG 1.1//EN" "http://www.w3.org/Graphics/SVG/1.1/DTD/svg11.dtd"><svg t="1746520128303" class="icon" viewBox="0 0 1024 1024" version="1.1" xmlns="http://www.w3.org/2000/svg" p-id="7009" xmlns:xlink="http://www.w3.org/1999/xlink" width="200" height="200"><path d="M369.777778 0C415.288889 0 455.111111 39.822222 455.111111 85.333333V455.111111c0 56.888889 34.133333 79.644444 56.888889 96.711111 68.266667 56.888889 113.777778 125.155556 113.777778 216.177778C625.777778 910.222222 512 1024 369.777778 1024S113.777778 910.222222 113.777778 768c0-91.022222 51.2-153.6 113.777778-216.177778 22.755556-17.066667 56.888889-39.822222 56.888888-96.711111V85.333333C284.444444 39.822222 324.266667 0 369.777778 0z" fill="#0088FF" p-id="7010"></path><path d="M369.777778 768m-142.222222 0a142.222222 142.222222 0 1 0 284.444444 0 142.222222 142.222222 0 1 0-284.444444 0Z" fill="#FFFFFF" opacity=".5" p-id="7011"></path><path d="M739.555556 113.777778h170.666666c34.133333 0 56.888889 22.755556 56.888889 56.888889s-22.755556 56.888889-56.888889 56.888889h-170.666666c-34.133333 0-56.888889-22.755556-56.888889-56.888889s22.755556-56.888889 56.888889-56.888889zM739.555556 341.333333h113.777777c34.133333 0 56.888889 22.755556 56.888889 56.888889s-22.755556 56.888889-56.888889 56.888889h-113.777777c-34.133333 0-56.888889-22.755556-56.888889-56.888889s22.755556-56.888889 56.888889-56.888889z" fill="#FF833D" p-id="7012"></path><path d="M739.555556 568.888889h113.777777c34.133333 0 56.888889 22.755556 56.888889 56.888889s-22.755556 56.888889-56.888889 56.888889h-113.777777c-34.133333 0-56.888889-22.755556-56.888889-56.888889s22.755556-56.888889 56.888889-56.888889zM739.555556 796.444444h170.666666c34.133333 0 56.888889 22.755556 56.888889 56.888889s-22.755556 56.888889-56.888889 56.888889h-170.666666c-34.133333 0-56.888889-22.755556-56.888889-56.888889s22.755556-56.888889 56.888889-56.888889z" fill="#329FFF" opacity=".6" p-id="7013"></path></svg>