<?xml version="1.0" standalone="no"?><!DOCTYPE svg PUBLIC "-//W3C//DTD SVG 1.1//EN" "http://www.w3.org/Graphics/SVG/1.1/DTD/svg11.dtd"><svg t="1746343865963" class="icon" viewBox="0 0 1024 1024" version="1.1" xmlns="http://www.w3.org/2000/svg" p-id="14572" xmlns:xlink="http://www.w3.org/1999/xlink" width="200" height="200"><path d="M511.33 960.22c-247.03 0-448-200.97-448-448s200.97-448 448-448 448 200.97 448 448-200.96 448-448 448z m0-809.29c-199.22 0-361.29 162.07-361.29 361.29s162.07 361.29 361.29 361.29 361.29-162.07 361.29-361.29-162.07-361.29-361.29-361.29z" fill="#1296db" p-id="14573"></path><path d="M501.57 744.44c-99.92 0-181.21-81.29-181.21-181.21V447.76c0-99.92 81.29-181.21 181.21-181.21s181.21 81.29 181.21 181.21v115.47c0 99.92-81.29 181.21-181.21 181.21z m0-391.18c-52.1 0-94.5 42.4-94.5 94.5v115.47c0 52.1 42.4 94.5 94.5 94.5s94.5-42.4 94.5-94.5V447.76c0-52.11-42.4-94.5-94.5-94.5z" fill="#1296db" p-id="14574"></path><path d="M658.95 757.9c-9.03 0-18.12-2.82-25.91-8.67l-120.13-89.98c-19.19-14.34-23.09-41.52-8.75-60.69 14.34-19.14 41.44-23.12 60.69-8.69l120.13 89.98c19.19 14.34 23.09 41.52 8.75 60.69-8.53 11.38-21.57 17.36-34.78 17.36z" fill="#1296db" p-id="14575"></path></svg>