<?xml version="1.0" standalone="no"?><!DOCTYPE svg PUBLIC "-//W3C//DTD SVG 1.1//EN" "http://www.w3.org/Graphics/SVG/1.1/DTD/svg11.dtd"><svg t="1746343815623" class="icon" viewBox="0 0 1024 1024" version="1.1" xmlns="http://www.w3.org/2000/svg" p-id="14106" data-spm-anchor-id="a313x.search_index.0.i16.75753a81IwDbWw" xmlns:xlink="http://www.w3.org/1999/xlink" width="200" height="200"><path d="M768 256m-204.8 0a204.8 204.8 0 1 0 409.6 0 204.8 204.8 0 1 0-409.6 0Z" fill="#13227a" p-id="14107" data-spm-anchor-id="a313x.search_index.0.i17.75753a81IwDbWw" class=""></path><path d="M459.6736 140.8a422.4 422.4 0 1 1 0 844.8 422.4 422.4 0 0 1 0-844.8z m0 76.8a345.6 345.6 0 1 0 0 691.2 345.6 345.6 0 0 0 0-691.2z" fill="#1296db" p-id="14108" data-spm-anchor-id="a313x.search_index.0.i15.75753a81IwDbWw" class="selected"></path><path d="M359.5776 373.76V768h65.3312v-119.3984h101.9392c96.8704 0 141.3632-67.0208 141.3632-138.5472 0-69.8368-44.4928-136.2944-141.3632-136.2944H359.5776z m65.3312 215.1424V433.4592h97.9968c56.8832 0 78.848 38.8608 78.848 78.848 0 38.8608-21.9648 76.5952-78.848 76.5952H424.9088z" fill="#1296db" p-id="14109" data-spm-anchor-id="a313x.search_index.0.i18.75753a81IwDbWw" class="selected"></path></svg>